# xmcd
#
# Track frame offsets: 
#        150
#        29120
#        51665
#        75320
#        90377
#        111837
#        137067
#        157547
#        183560
#        195030
#        218705
#        246615
#        268437
#
# Disc length: 3722 seconds
#
# Revision: 4
# Processed by: cddbd v1.5.2PL0 Copyright (c) Steve Scherf et al.
# Submitted via: ExactAudioCopy v1.0b3
#
DISCID=b40e880d
DTITLE=Mondo Grosso - Closer
DYEAR=1900
DGENRE=
TTITLE0=Closer
TTITLE1=Things Keep Changin'
TTITLE2=Laughter In The Rain
TTITLE3=Untitles
TTITLE4=I Can't Go For That
TTITLE5=100% Woman Overtime
TTITLE6=Shoulda Been Lovin' You
TTITLE7=Until The Day
TTITLE8=89.5 C
TTITLE9=Everyday Life
TTITLE10=First Time
TTITLE11=Just For Tonight
TTITLE12=Outro...Murphy Said
EXTD=
EXTT0=
EXTT1=
EXTT2=
EXTT3=
EXTT4=
EXTT5=
EXTT6=
EXTT7=
EXTT8=
EXTT9=
EXTT10=
EXTT11=
EXTT12=
PLAYORDER=
